<svg width="554" height="460" viewBox="0 0 554 460" fill="none" xmlns="http://www.w3.org/2000/svg">
<path d="M398.238 179.957C385.011 158.316 373.356 142.444 373.356 142.444C373.356 142.444 365.039 151.607 353.755 164.982C331.88 190.913 298.852 232.678 293.652 254.21C285.769 286.85 287.911 335.315 287.911 335.315L346.527 404.551C346.527 404.551 407.514 385.759 420.652 363.01C433.79 340.261 438.169 314.545 435.542 269.047C434.077 243.676 414.909 207.234 398.238 179.957Z" fill="#ECD5DC"/>
<path d="M138.684 371.492C138.684 371.492 139.163 371.804 138.804 371.601C159.904 390.569 216.428 404.551 216.428 404.551L268.104 335.315C268.104 335.315 268.104 288.828 260.221 256.189C252.339 223.549 180.518 144.422 180.518 144.422C180.518 144.422 120.959 225.527 118.332 271.025C115.704 316.523 120.083 342.239 133.221 364.988C134.519 367.235 136.381 369.406 138.684 371.492Z" fill="#ECD5DC"/>
<path d="M80.4136 364.241C81.2869 366.287 82.2455 368.206 83.2972 369.933C95.4608 389.912 110.169 394.111 130.594 401.584C137.056 403.948 147.085 403.96 154.78 404.551C148.6 406.119 116.181 414.548 96.4351 411.475C80.4663 408.989 71.8284 404.823 57.0213 397.628C42.2142 390.432 4.46958 360.042 4.46958 360.042C4.46958 360.042 24.1513 349.184 37.7523 348.173C52.8599 347.051 75.1708 360.843 80.4136 364.241Z" fill="#ECD5DC"/>
<path d="M216.428 404.551L282.333 410.35L346.527 404.551L287.911 335.315H268.104L216.428 404.551Z" fill="#ECD5DC"/>
<path d="M433.237 435.213C435.67 427.537 433.995 415.196 433.414 411.539C419.879 410.187 407.112 407.23 402.337 406.046C375.886 409.232 346.527 404.551 346.527 404.551C346.527 404.551 377.382 412.808 392.947 426.311C403.895 435.808 416.596 455.983 416.596 455.983C416.596 455.983 429.973 445.512 433.237 435.213Z" fill="#ECD5DC"/>
<path d="M427.5 130.382C426.552 132.794 425.533 135.173 424.439 137.499C410.247 167.668 399.237 178.966 398.238 179.957C414.909 207.234 434.077 243.676 435.542 269.047C438.169 314.545 433.79 340.261 420.652 363.01C407.514 385.759 346.527 404.551 346.527 404.551C346.527 404.551 375.886 409.232 402.337 406.046C409.387 405.197 416.23 403.788 422.256 401.584C442.681 394.111 457.389 389.912 469.552 369.933C478.33 355.515 480.625 327.77 480.907 323.899C477.322 329.37 473.389 333.986 469.108 337.293C452.467 350.152 413.929 371.911 413.929 371.911L469.108 337.293C473.389 333.986 477.322 329.37 480.907 323.899C491.26 308.102 498.713 285.181 503.267 266.079C507.126 249.893 511.332 224.692 510.643 199.112C510.238 184.054 508.135 168.863 503.267 155.302C490.129 118.706 440.205 64.3065 440.205 64.3065C440.205 64.3065 441.292 70.1062 440.649 77.1646C439.466 90.1497 435.244 110.678 427.5 130.382Z" fill="#ECD5DC"/>
<path d="M548.042 260.145C555.264 218.28 527.897 153.324 527.897 153.324L510.643 199.112C511.332 224.692 507.126 249.893 503.267 266.079C498.713 285.181 491.26 308.102 480.907 323.899C480.625 327.77 478.33 355.515 469.552 369.933C457.389 389.912 442.681 394.111 422.256 401.584C416.23 403.788 409.387 405.197 402.337 406.046C407.112 407.23 419.879 410.187 433.414 411.539C441.628 412.36 450.125 412.59 457.29 411.475C473.259 408.989 481.897 404.823 496.704 397.628C511.511 390.432 549.256 360.042 549.256 360.042C549.256 360.042 529.574 349.184 515.973 348.173C498.755 346.894 472.18 364.988 472.18 364.988C472.18 364.988 509.671 339.336 522.642 321.468C537.485 301.022 543.565 286.096 548.042 260.145Z" fill="#ECD5DC"/>
<path d="M413.929 85.9905C401.875 66.7311 383.296 60.6631 366.201 48.4812C349.105 36.2993 327.663 17.8196 327.663 17.8196L305.999 75.7875C306.519 76.2254 307.041 76.6682 307.565 77.1158C318.986 86.8826 331.14 98.9245 339.68 111.783C359.499 141.624 354.403 162.673 353.755 164.982C365.039 151.607 373.356 142.444 373.356 142.444C373.356 142.444 385.011 158.316 398.238 179.957C399.237 178.966 410.247 167.668 424.439 137.499C425.533 135.173 426.552 132.794 427.5 130.382C427.333 127.63 423.909 101.937 413.929 85.9905Z" fill="#ECD5DC"/>
<path d="M125.339 130.575C119.508 115.395 116.496 97.8789 114.869 85.347C113.259 72.9461 113.076 64.3065 113.076 64.3065C113.076 64.3065 63.1523 118.706 50.0144 155.302C36.8765 191.898 43.8837 240.363 50.0145 266.079C56.1453 291.796 67.5316 324.435 84.173 337.293L138.684 371.492C136.381 369.406 134.519 367.235 133.221 364.988C120.083 342.239 115.704 316.523 118.332 271.025C120.959 225.527 180.518 144.422 180.518 144.422C180.518 144.422 252.339 223.549 260.221 256.189C268.104 288.828 268.104 335.315 268.104 335.315H287.911C287.911 335.315 285.769 286.85 293.652 254.21C298.852 232.678 331.88 190.913 353.755 164.982C354.403 162.673 359.499 141.624 339.68 111.783C331.14 98.9245 318.986 86.8826 307.565 77.1158C307.041 76.6682 306.519 76.2254 305.999 75.7875L322.118 32.6559L275.111 2.9834L230.949 32.6559L225.187 17.8196C225.187 17.8196 198.119 35.2007 181.023 47.3825C163.928 59.5644 149.654 60.8725 137.601 80.1319C128.301 94.9913 125.765 124.545 125.339 130.575Z" fill="#ECD5DC"/>
<path d="M50.0145 266.079C46.4898 251.295 42.6753 228.99 42.566 205.745L24.6144 153.324C24.6144 153.324 -2.75253 218.28 4.4696 260.145C8.94638 286.096 15.027 301.022 29.8696 321.468C42.8406 339.336 80.4136 364.241 80.4136 364.241C73.4404 347.903 84.173 337.293 84.173 337.293C67.5316 324.435 56.1453 291.796 50.0145 266.079Z" fill="#ECD5DC"/>
<path d="M83.2972 369.933C95.4608 389.912 110.169 394.111 130.594 401.584C137.056 403.948 147.085 403.96 154.78 404.551C181.183 406.58 216.428 404.551 216.428 404.551C216.428 404.551 159.904 390.569 138.804 371.601C134.053 368.902 99.6471 349.25 84.173 337.293C84.173 337.293 73.4404 347.903 80.4136 364.241C81.2869 366.287 82.2455 368.206 83.2972 369.933Z" fill="#ECD5DC"/>
<path d="M137.601 80.1319C149.654 60.8725 163.928 59.5644 181.023 47.3825L188.401 16.8306C188.401 16.8306 160.983 31.5308 145.483 44.5249C132.071 55.7693 114.247 80.1319 114.247 80.1319L114.869 85.347C116.496 97.8789 119.508 115.395 125.339 130.575C125.765 124.545 128.301 94.9913 137.601 80.1319Z" fill="#ECD5DC"/>
<path d="M366.201 48.4812C383.296 60.6631 401.875 66.7311 413.929 85.9905C423.909 101.937 427.333 127.63 427.5 130.382C435.244 110.678 439.466 90.1497 440.649 77.1646C436.419 72.2607 420.488 54.0569 409.118 44.5249C393.619 31.5308 366.201 16.8306 366.201 16.8306L366.201 48.4812Z" fill="#ECD5DC"/>
<path d="M154.78 404.551C154.78 404.551 125.622 426.121 128.504 435.213C131.769 445.512 146.359 455.983 146.359 455.983C146.359 455.983 159.06 435.808 170.007 426.311C185.573 412.808 216.428 404.551 216.428 404.551C216.428 404.551 181.183 406.58 154.78 404.551Z" fill="#ECD5DC"/>
<path d="M155.118 180.029C155.118 180.029 143.732 169.149 128.842 137.499C127.605 134.868 126.39 133.312 125.339 130.575M50.0145 266.079C43.8837 240.363 36.8765 191.898 50.0144 155.302C63.1523 118.706 113.076 64.3065 113.076 64.3065C113.076 64.3065 113.259 72.9461 114.869 85.347M50.0145 266.079C56.1453 291.796 67.5316 324.435 84.173 337.293M50.0145 266.079C46.4898 251.295 42.6753 228.99 42.566 205.745L24.6144 153.324C24.6144 153.324 -2.75253 218.28 4.4696 260.145C8.94638 286.096 15.027 301.022 29.8696 321.468C42.8406 339.336 80.4136 364.241 80.4136 364.241M84.173 337.293L138.684 371.492M84.173 337.293C99.6471 349.25 134.053 368.902 138.804 371.601M84.173 337.293C84.173 337.293 73.4404 347.903 80.4136 364.241M138.684 371.492C138.684 371.492 139.163 371.804 138.804 371.601M138.684 371.492C136.381 369.406 134.519 367.235 133.221 364.988C120.083 342.239 115.704 316.523 118.332 271.025C120.959 225.527 180.518 144.422 180.518 144.422C180.518 144.422 252.339 223.549 260.221 256.189C268.104 288.828 268.104 335.315 268.104 335.315M138.684 371.492C138.724 371.528 138.764 371.564 138.804 371.601M154.78 404.551C154.78 404.551 125.622 426.121 128.504 435.213C131.769 445.512 146.359 455.983 146.359 455.983C146.359 455.983 159.06 435.808 170.007 426.311C185.573 412.808 216.428 404.551 216.428 404.551M154.78 404.551C147.085 403.96 137.056 403.948 130.594 401.584C110.169 394.111 95.4608 389.912 83.2972 369.933C82.2455 368.206 81.2869 366.287 80.4136 364.241M154.78 404.551C148.6 406.119 116.181 414.548 96.4351 411.475C80.4663 408.989 71.8284 404.823 57.0213 397.627C42.2143 390.432 4.46958 360.042 4.46958 360.042C4.46958 360.042 24.1513 349.184 37.7523 348.173C52.8599 347.051 75.1708 360.843 80.4136 364.241M154.78 404.551C181.183 406.58 216.428 404.551 216.428 404.551M216.428 404.551L268.104 335.315M216.428 404.551C216.428 404.551 159.904 390.569 138.804 371.601M216.428 404.551L282.333 410.35M283.87 410.486L282.333 410.35M268.104 335.315H287.911M287.911 335.315C287.911 335.315 285.769 286.85 293.652 254.21C298.852 232.678 331.88 190.913 353.755 164.982M287.911 335.315L346.527 404.551M433.237 410.486C433.237 410.486 433.307 410.865 433.414 411.539M346.527 404.551C346.527 404.551 377.382 412.808 392.947 426.311C403.895 435.808 416.596 455.983 416.596 455.983C416.596 455.983 429.973 445.512 433.237 435.213C435.67 427.537 433.995 415.196 433.414 411.539M346.527 404.551C346.527 404.551 407.514 385.759 420.652 363.01C433.79 340.261 438.169 314.545 435.542 269.047C434.077 243.676 414.909 207.234 398.238 179.957M346.527 404.551L282.333 410.35M346.527 404.551C346.527 404.551 375.886 409.232 402.337 406.046M280.837 410.486L282.333 410.35M398.164 180.029C398.164 180.029 398.189 180.005 398.238 179.957M469.108 337.293C452.467 350.152 413.929 371.911 413.929 371.911L469.108 337.293ZM469.108 337.293C473.389 333.986 477.322 329.37 480.907 323.899M510.38 199.811L510.643 199.112M480.939 323.446C480.939 323.446 480.929 323.603 480.907 323.899M400.359 405.54C400.359 405.54 401.064 405.73 402.337 406.046M125.339 130.575C125.765 124.545 128.301 94.9913 137.601 80.1319C149.654 60.8725 163.928 59.5644 181.023 47.3825M125.339 130.575C119.508 115.395 116.496 97.8789 114.869 85.347M181.023 47.3825C198.119 35.2007 225.187 17.8196 225.187 17.8196M181.023 47.3825L188.401 16.8306C188.401 16.8306 160.983 31.5308 145.483 44.5249C132.071 55.7693 114.247 80.1319 114.247 80.1319L114.869 85.347M225.187 17.8196L247.083 74.1974M225.187 17.8196L230.949 32.6559L275.111 2.9834L322.118 32.6559L305.999 75.7875M425.049 136.181C425.049 136.181 426.896 131.889 427.5 130.382M366.201 48.4812C383.296 60.6631 401.875 66.7311 413.929 85.9905C423.909 101.937 427.334 127.63 427.5 130.382M366.201 48.4812C349.105 36.2993 327.663 17.8196 327.663 17.8196L305.999 75.7875M366.201 48.4812L366.201 16.8306C366.201 16.8306 393.619 31.5308 409.118 44.5249C420.488 54.0569 436.419 72.2607 440.649 77.1646M305.999 75.7875C306.519 76.2254 307.041 76.6682 307.565 77.1158M440.649 77.1646C441.292 70.1062 440.205 64.3065 440.205 64.3065C440.205 64.3065 490.129 118.706 503.267 155.302C508.135 168.863 510.238 184.054 510.643 199.112M440.649 77.1646C439.466 90.1497 435.244 110.678 427.5 130.382M199.787 165.193C199.787 165.193 192.78 143.433 213.801 111.783C234.822 80.1319 275.742 53.4266 275.742 53.4266C275.742 53.4266 290.872 62.8413 307.565 77.1158M353.693 165.193C353.693 165.193 353.716 165.122 353.755 164.982M398.238 179.957C385.011 158.316 373.356 142.444 373.356 142.444C373.356 142.444 365.039 151.607 353.755 164.982M398.238 179.957C399.237 178.966 410.247 167.668 424.439 137.499C425.533 135.173 426.552 132.794 427.5 130.382M353.755 164.982C354.403 162.673 359.499 141.624 339.68 111.783C331.14 98.9245 318.986 86.8826 307.565 77.1158M433.414 411.539C419.879 410.187 407.112 407.23 402.337 406.046M433.414 411.539C441.628 412.36 450.125 412.59 457.29 411.475C473.259 408.989 481.897 404.823 496.704 397.627C511.511 390.432 549.256 360.042 549.256 360.042C549.256 360.042 529.574 349.184 515.973 348.173C498.755 346.894 472.18 364.988 472.18 364.988C472.18 364.988 509.671 339.336 522.642 321.468C537.485 301.022 543.565 286.096 548.042 260.145C555.264 218.28 527.897 153.324 527.897 153.324L510.643 199.112M402.337 406.046C409.387 405.197 416.23 403.788 422.256 401.584C442.681 394.111 457.389 389.912 469.552 369.933C478.33 355.515 480.625 327.77 480.907 323.899M480.907 323.899C491.26 308.102 498.713 285.181 503.267 266.079C507.126 249.893 511.332 224.692 510.643 199.112" stroke="#D584B6" stroke-width="5"/>
</svg>
