<svg width="102" height="75" viewBox="0 0 102 75" fill="none" xmlns="http://www.w3.org/2000/svg">
<path d="M74.5338 48.5202C74.5338 39.7749 63.6731 32.6854 50.2757 32.6854C36.8783 32.6854 26.0176 39.7749 26.0176 48.5202C26.0176 57.2655 36.8783 64.355 50.2757 64.355C63.6731 64.355 74.5338 57.2655 74.5338 48.5202Z" fill="#439364"/>
<path d="M98.1422 71.0659C89.0908 74.8525 76.0053 75.9733 66.7166 71.1871C62.9347 68.9496 59.6849 66.0662 57.1542 62.7027C54.6235 59.3392 52.8617 55.5619 51.9701 51.5879C51.5634 50.0121 51.2802 48.4128 51.1225 46.8018C60.1739 43.0152 73.2255 41.8641 82.548 46.6806C86.4972 48.8006 89.8032 51.7548 92.1757 55.2836C95.4986 60.0634 97.5405 65.4647 98.1422 71.0659ZM50.5801 46.8018C50.4225 48.4128 50.1393 50.0121 49.7326 51.5879C48.841 55.5619 47.0792 59.3392 44.5485 62.7027C42.0178 66.0662 38.768 68.9496 34.986 71.1871C25.6974 75.9733 12.6119 74.8525 3.56055 71.0659C4.16221 65.4647 6.20413 60.0634 9.52698 55.2836C11.8995 51.7548 15.2055 48.8006 19.1546 46.6806C28.4772 41.8641 41.5288 43.0152 50.5801 46.8018Z" fill="#439364"/>
<path d="M50.5795 46.8018C50.4219 48.4128 50.1387 50.0121 49.732 51.5879C49.4947 51.8 49.2574 51.9817 48.9862 52.2241C43.1602 57.4318 35.3835 60.5286 27.1545 60.918C20.7664 60.7203 14.6056 58.7511 9.52637 55.2836C11.8989 51.7548 15.2049 48.8006 19.154 46.6806C28.4766 41.8641 41.5282 43.0152 50.5795 46.8018Z" fill="#0C472C"/>
<path d="M54.3081 43.7422C52.9587 45.4569 51.4383 47.0588 49.7655 48.5284C49.5282 48.7405 49.257 48.9525 48.9858 49.1949C43.1598 54.4025 35.3831 57.4994 27.1541 57.8888C16.3738 57.8888 5.72914 51.073 0 43.7422C3.45811 39.3944 7.94988 35.7842 13.1533 33.1702C17.3955 30.9164 22.2197 29.6847 27.1541 29.5957C35.8619 30.0514 44.0413 33.4781 50.0028 39.1681C51.5876 40.5751 53.0284 42.1059 54.3081 43.7422Z" fill="#FFBBCD"/>
<path d="M92.1752 55.2836C87.096 58.7511 80.9352 60.7203 74.5471 60.918C66.3181 60.5286 58.5414 57.4318 52.7154 52.2241C52.4442 51.9817 52.2069 51.8 51.9696 51.5879C51.5629 50.0121 51.2797 48.4128 51.1221 46.8018C60.1734 43.0152 73.225 41.8641 82.5476 46.6806C86.4967 48.8006 89.8027 51.7548 92.1752 55.2836Z" fill="#0C472C"/>
<path d="M101.701 43.7422C95.9716 51.073 85.3269 57.8888 74.5466 57.8888C66.3176 57.4994 58.5409 54.4025 52.7149 49.1949C52.4437 48.9525 52.1725 48.7405 51.9352 48.5284C50.2624 47.0588 48.742 45.4569 47.3926 43.7422C48.6723 42.1059 50.1131 40.5751 51.6979 39.1681C57.6594 33.4781 65.8388 30.0514 74.5466 29.5957C79.4811 29.6847 84.3052 30.9164 88.5474 33.1702C93.7508 35.7842 98.2426 39.3944 101.701 43.7422Z" fill="#FFBBCD"/>
<path d="M50.2411 43.7119C50.2083 45.3253 50.0498 46.9347 49.7665 48.5284C49.7326 48.7102 49.6987 48.9222 49.6648 49.104C49.4275 49.1343 49.2241 49.1646 48.9868 49.1949C39.2575 50.5883 26.7144 48.6193 19.2563 41.955C16.5407 39.4517 14.4596 36.4557 13.1543 33.1702C17.3965 30.9164 22.2207 29.6847 27.1551 29.5957C35.8629 30.0514 44.0424 33.4781 50.0038 39.1681C50.1997 40.676 50.279 42.1942 50.2411 43.7119Z" fill="#BF4582"/>
<path d="M53.6299 43.6816V43.7119C53.599 45.5201 53.4062 47.3232 53.0536 49.1039C43.2226 50.6791 30.2727 48.7707 22.6451 41.9549C15.0515 35.1694 12.9158 23.5977 14.6786 14.813C20.9506 13.8666 27.3838 14.2505 33.4593 15.9338C37.8063 17.089 41.7813 19.1558 45.0532 21.962C50.9702 27.9265 54.0476 35.7196 53.6299 43.6816Z" fill="#FFBBCD"/>
<path d="M88.5482 33.1702C87.2428 36.4557 85.1617 39.4517 82.4461 41.955C74.9881 48.6193 62.445 50.5883 52.7156 49.1949C52.4783 49.1646 52.2749 49.1343 52.0376 49.104C52.0039 48.9222 51.9698 48.7102 51.9359 48.5284C51.6527 46.9347 51.4941 45.3253 51.4613 43.7119C51.4235 42.1942 51.5028 40.676 51.6986 39.1681C57.6601 33.4781 65.8395 30.0514 74.5474 29.5957C79.4818 29.6847 84.3059 30.9164 88.5482 33.1702Z" fill="#BF4582"/>
<path d="M79.0556 41.9549C71.428 48.7707 58.4782 50.6791 48.6471 49.1039C48.2945 47.3232 48.1018 45.5201 48.0708 43.7119C47.653 35.7408 50.7298 27.9382 56.6476 21.962C59.9194 19.1558 63.8945 17.089 68.2414 15.9338C74.3169 14.2505 80.7501 13.8666 87.0221 14.813C88.785 23.5977 86.6492 35.1694 79.0556 41.9549Z" fill="#FFBBCD"/>
<path d="M70.072 24.264C70.0147 29.1935 68.3314 33.9985 65.2328 38.0773C61.7379 42.7822 56.7208 46.4233 50.8506 48.5149C51.191 47.8223 51.2713 47.0498 51.0794 46.3129C50.8526 45.6933 50.4601 45.1326 49.9358 44.6793C49.4115 44.2259 48.7713 43.8938 48.0708 43.7117C47.653 35.7406 50.7298 27.938 56.6476 21.9618C59.9194 19.1556 63.8945 17.0888 68.2414 15.9336C69.4303 18.5834 70.0513 21.4092 70.072 24.264Z" fill="#BF4582"/>
<path d="M53.6301 43.6819V43.7122C52.9296 43.8943 52.2895 44.2264 51.7652 44.6798C51.2408 45.1331 50.8483 45.6939 50.6215 46.3135C50.4296 47.0503 50.5099 47.8228 50.8503 48.5154C44.9801 46.4238 39.9631 42.7827 36.4682 38.0778C33.3696 33.999 31.6863 29.194 31.6289 24.2645C31.6496 21.4097 32.2706 18.5839 33.4595 15.9341C37.8065 17.0893 41.7815 19.1561 45.0534 21.9623C50.9704 27.9268 54.0478 35.7199 53.6301 43.6819Z" fill="#BF4582"/>
<path d="M50.8514 48.5162C59.5967 48.5162 66.6862 37.6555 66.6862 24.2581C66.6862 10.8607 59.5967 0 50.8514 0C42.1061 0 35.0166 10.8607 35.0166 24.2581C35.0166 37.6555 42.1061 48.5162 50.8514 48.5162Z" fill="#FFBBCD"/>
</svg>
